<svg version="1.1" id="Layer_1" xmlns="http://www.w3.org/2000/svg" xmlns:xlink="http://www.w3.org/1999/xlink" x="0px" y="0px"
	 width="100%" viewBox="0 0 1181 1181" enable-background="new 0 0 1181 1181" xml:space="preserve">
<path fill="#549470" opacity="1.000000" stroke="none" 
	d="
M1182.000000,563.000000 
	C1182.000000,582.020874 1182.000000,601.041809 1181.657227,620.774780 
	C1178.874634,643.479126 1177.199707,665.588806 1173.844238,687.440430 
	C1165.405884,742.393433 1148.715210,794.951721 1124.714844,845.045105 
	C1088.842529,919.917603 1039.545166,984.683044 976.575806,1038.934082 
	C911.525879,1094.977661 837.616760,1134.666626 755.242310,1158.621582 
	C715.816040,1170.086914 675.667603,1177.738037 634.615112,1180.287354 
	C628.730652,1180.652710 622.871094,1181.419067 617.000000,1182.000000 
	C599.979126,1182.000000 582.958191,1182.000000 565.209412,1181.662598 
	C541.486633,1178.900024 518.339233,1177.444946 495.526703,1173.859253 
	C437.785919,1164.783325 382.759491,1146.755249 330.330414,1120.905029 
	C251.248764,1081.913818 184.379761,1027.748901 129.438980,958.830627 
	C88.080521,906.950317 56.399586,849.660889 34.420910,787.093323 
	C16.960659,737.388428 6.177491,686.234863 2.709109,633.597534 
	C2.431143,629.379150 1.583117,625.198303 1.000002,621.000000 
	C1.000000,601.645752 1.000000,582.291565 1.334284,562.216309 
	C3.531177,542.778809 4.647784,523.951965 7.398380,505.366974 
	C15.182176,452.774078 29.698896,402.050873 51.288544,353.387146 
	C86.254875,274.572021 135.937668,206.497070 200.380081,149.270401 
	C251.018082,104.302460 307.912750,69.299538 370.731567,44.010174 
	C428.118988,20.907366 487.594727,6.716604 549.415771,2.695797 
	C553.629456,2.421740 557.806091,1.578519 562.000000,0.999999 
	C581.020874,1.000000 600.041809,1.000000 619.779297,1.341452 
	C642.657898,4.102338 664.947083,5.698404 686.958374,9.094794 
	C754.388062,19.499329 817.727905,42.120758 877.400391,75.051277 
	C946.078796,112.951813 1004.711792,162.771011 1053.552979,224.141190 
	C1095.614258,276.992157 1127.630005,335.380920 1149.683105,399.188934 
	C1166.511108,447.878754 1176.833618,497.939301 1180.293945,549.382751 
	C1180.600586,553.939453 1181.419067,558.461731 1182.000000,563.000000 
M941.099670,769.627747 
	C941.248596,763.347778 940.584106,756.920105 941.693481,750.814575 
	C945.595520,729.338013 953.849854,709.421265 964.913086,690.654236 
	C969.215149,683.356445 973.751648,676.195068 977.963623,668.846741 
	C979.864563,665.530457 979.139954,661.751038 976.033569,660.011414 
	C973.731445,658.722229 970.298828,659.228149 967.387024,659.349304 
	C966.013245,659.406372 964.679993,660.437195 963.137329,660.295532 
	C961.283569,658.204529 959.688843,654.863281 957.496033,654.408997 
	C955.666504,654.029907 952.322449,656.536194 951.046082,658.620117 
	C941.951599,673.469055 932.394043,688.124512 924.589111,703.648621 
	C916.212097,720.310730 910.444336,738.085388 910.855164,757.191589 
	C911.251648,775.633301 919.836914,784.696350 938.299438,786.681824 
	C943.447632,791.561523 949.723389,791.577881 956.046509,790.410889 
	C966.817444,788.423157 974.979370,781.671143 982.762512,774.633362 
	C994.100952,764.380859 1004.994446,753.637146 1016.300415,743.347534 
	C1035.511719,725.863342 1053.644897,707.362671 1070.027588,687.192810 
	C1071.870972,684.923096 1073.804077,682.095764 1074.083130,679.362427 
	C1074.365234,676.598816 1073.386841,672.912903 1071.541504,670.999512 
	C1070.271484,669.682617 1066.569702,670.533447 1063.979126,670.732910 
	C1062.377930,670.856201 1060.822632,671.575134 1058.948364,671.359009 
	C1055.487549,663.512512 1053.218018,663.134521 1047.380127,669.349182 
	C1029.608154,688.268250 1011.472595,706.860291 994.138916,726.172363 
	C978.546265,743.544922 960.945679,758.274048 941.099670,769.627747 
M898.251892,934.321411 
	C901.227051,938.405945 904.921875,940.995667 910.194275,939.254333 
	C917.339966,936.894287 918.566406,929.449951 913.256897,921.971619 
	C910.856873,918.591248 907.840515,915.374573 906.472046,911.588989 
	C902.918762,901.759094 899.001099,891.845947 897.262268,881.620239 
	C893.752991,860.982361 891.028564,840.169006 889.033508,819.327271 
	C887.023865,798.332703 885.614929,777.228760 885.209351,756.148438 
	C884.870911,738.557678 885.509888,720.841858 887.347351,703.352844 
	C888.565369,691.760254 891.285400,679.895752 895.763245,669.167175 
	C904.409973,648.450378 915.101807,628.598328 924.352661,608.119690 
	C938.193665,577.479614 951.932556,546.780212 964.946716,515.783508 
	C976.421082,488.454071 987.027039,460.728333 993.930664,431.807709 
	C995.924316,423.456299 997.475098,414.826019 997.729431,406.278961 
	C998.010193,396.841522 989.635132,387.059387 978.191284,392.679901 
	C974.124939,387.583771 969.982605,386.696259 964.860352,390.308746 
	C962.592529,391.908112 960.513855,394.024780 958.936951,396.311768 
	C951.756836,406.724884 944.455322,417.077240 937.793274,427.820953 
	C896.730652,494.042084 874.920654,566.896667 863.946777,643.442749 
	C862.530579,653.320923 863.399658,664.317139 859.192505,672.803772 
	C853.974060,683.330322 854.212952,692.918213 856.164368,703.401611 
	C856.346008,704.377686 856.364807,705.393188 856.373413,706.391052 
	C856.502441,721.384949 857.115234,736.394714 856.641235,751.369934 
	C855.253418,795.214539 859.370544,838.533630 868.017578,881.473572 
	C871.108765,896.824219 874.503174,912.105347 881.918640,926.105896 
	C886.348083,934.468750 889.262573,935.788086 898.251892,934.321411 
M273.772308,540.114807 
	C274.485413,542.594727 276.314972,545.380676 275.732483,547.505432 
	C271.604980,562.562012 266.677643,577.399719 262.573639,592.462097 
	C247.360458,648.296936 236.301880,704.962708 231.286118,762.630188 
	C227.370270,807.651672 225.712982,852.851135 231.351746,897.848022 
	C233.575378,915.592468 237.784103,933.191833 242.447113,950.491089 
	C245.658569,962.405273 252.514801,968.387451 265.236359,967.788757 
	C268.671265,972.184021 273.492310,973.259338 278.539062,972.457581 
	C284.296143,971.542969 289.143494,968.368530 290.087372,962.347534 
	C290.577698,959.219788 289.279785,955.289246 287.557678,952.475281 
	C285.603333,949.281860 282.154541,950.267334 279.103180,951.857117 
	C277.825439,952.522888 276.259338,952.635193 274.462280,952.409363 
	C272.638916,950.252075 270.815521,948.094788 268.819733,945.191223 
	C261.036499,916.373352 258.839813,886.832397 258.097992,857.194580 
	C257.239685,822.903198 258.000885,788.599121 262.189392,754.520935 
	C264.110931,738.886963 265.999268,722.891174 270.949554,708.077637 
	C277.145844,689.535339 286.004791,671.812073 294.558655,654.144043 
	C309.079559,624.150757 324.252472,594.472961 339.181458,564.677673 
	C340.297699,562.449829 341.546295,560.270996 342.921082,558.193665 
	C345.474274,554.335693 349.368805,552.818420 353.737701,553.324585 
	C375.876129,555.890137 397.955170,559.029968 420.130768,561.191406 
	C435.997040,562.737976 451.974976,563.472412 467.918060,563.772827 
	C477.519745,563.953796 487.182129,562.905823 496.759979,561.877075 
	C510.084076,560.445984 523.023987,557.198730 535.119446,551.307922 
	C538.154053,549.829956 541.065552,547.483459 543.158325,544.842590 
	C545.810425,541.495911 546.038208,537.396301 543.145203,533.775635 
	C540.344727,530.270691 536.875183,530.618713 533.229492,532.374512 
	C531.886292,533.021423 530.446350,533.467407 528.724365,533.366211 
	C527.024292,530.992249 527.977966,525.562317 522.116150,528.065979 
	C514.839172,531.174072 507.628845,534.761841 500.022919,536.710938 
	C482.205139,541.276917 463.849487,543.319458 445.557343,542.274841 
	C416.668091,540.625061 387.857391,537.598633 358.842468,534.360901 
	C359.340576,530.356201 359.070862,526.060669 360.459778,522.393311 
	C370.464691,495.975494 380.852966,469.703156 391.015930,443.344696 
	C394.854309,433.389587 395.606750,422.964691 394.944427,412.411591 
	C394.271851,401.695709 384.565247,391.734558 374.325134,397.663574 
	C370.752869,393.069000 365.940094,392.702942 361.316559,394.988464 
	C357.065369,397.089905 352.959259,399.898346 349.527679,403.169922 
	C337.215118,414.908173 327.975983,429.105438 320.478760,444.133057 
	C308.767212,467.607941 298.194061,491.652252 287.217560,515.491638 
	C283.109711,524.413208 279.998230,525.998169 270.409821,524.528381 
	C258.741577,522.739807 247.048477,521.000732 235.308090,519.815186 
	C188.668793,515.105408 142.520889,518.705383 96.928886,529.186096 
	C82.837265,532.425415 69.036690,536.921387 56.711159,544.967529 
	C52.963104,547.414246 51.007660,550.261475 52.327885,554.959961 
	C54.265377,561.855225 56.719894,563.324280 67.222069,563.208496 
	C68.255379,564.043701 69.267456,564.906921 70.325569,565.709412 
	C75.528900,569.655762 82.783981,569.063110 86.123665,563.522034 
	C91.593338,554.446777 100.055328,550.082642 109.667572,548.239685 
	C126.445244,545.022827 143.315948,541.563354 160.301743,540.333252 
	C184.789719,538.559814 209.412521,538.508423 233.984070,538.112366 
	C241.413940,537.992554 248.857483,539.297791 256.308228,539.702820 
	C261.863373,540.004822 267.440155,539.908386 273.772308,540.114807 
M659.822571,769.410095 
	C659.548950,767.622375 659.083069,765.840027 659.032349,764.046021 
	C658.658081,750.795593 662.764648,738.452698 666.953979,726.157532 
	C672.898254,708.711853 681.555725,692.665100 691.879517,677.417725 
	C694.311096,673.826538 696.137207,669.385071 696.760620,665.118347 
	C697.590393,659.439392 692.342651,656.399231 687.075378,658.827881 
	C685.437622,659.583008 683.776428,660.287354 681.939087,660.306519 
	C680.051514,658.209961 678.308594,654.629395 676.236328,654.427368 
	C674.095459,654.218689 671.198364,656.921021 669.410828,659.014709 
	C666.342407,662.608704 663.879395,666.719604 660.988037,670.863098 
	C657.257996,663.217407 655.393127,662.600098 648.752380,667.331177 
	C641.302307,672.638733 633.851746,678.005676 626.877197,683.908936 
	C609.731262,698.421387 592.858215,713.256348 575.344604,727.580627 
	C574.469788,726.587585 573.540710,725.636902 572.728394,724.595093 
	C562.142273,711.017334 548.270691,702.841553 531.434326,699.689392 
	C529.663391,699.357849 527.682190,700.149353 525.021301,700.300110 
	C511.010834,698.097717 497.000366,695.895264 482.890198,692.951660 
	C483.515594,688.790894 483.258057,684.233276 484.918823,680.537842 
	C492.210388,664.312561 503.205292,650.564575 514.951782,637.347778 
	C529.021362,621.517151 544.183044,606.958679 561.990784,595.332275 
	C564.345764,593.794739 567.173584,592.538025 568.755432,590.393677 
	C570.130798,588.529236 570.994080,585.291016 570.330872,583.221680 
	C569.761230,581.444458 566.848328,579.693909 564.727661,579.321594 
	C562.084045,578.857483 559.190125,579.819153 556.048157,579.612122 
	C554.028381,574.940369 550.369751,574.088623 546.196045,576.034973 
	C540.492920,578.694580 534.619568,581.267700 529.498901,584.849670 
	C507.008118,600.582153 489.057861,620.952942 472.554413,642.588501 
	C466.030640,651.140991 460.736603,660.631592 455.573517,668.625427 
	C453.821686,667.125427 451.925903,664.313354 449.648254,663.959473 
	C448.063995,663.713379 445.494232,666.536682 444.168762,668.524841 
	C440.481476,674.055725 437.215454,679.867310 433.779877,685.566101 
	C419.254028,709.660828 401.660370,731.045471 377.643951,746.208923 
	C370.779144,750.543213 362.583130,752.769104 354.800934,755.306641 
	C352.197479,749.509888 348.499878,743.946533 347.204010,737.870911 
	C343.854034,722.164734 347.780548,706.904541 352.113800,691.857361 
	C352.629059,690.068176 354.118896,688.559692 355.890137,686.970398 
	C358.547516,686.958191 361.204895,686.945923 364.447144,687.303406 
	C373.371277,694.702454 378.552917,695.002563 387.153717,687.100525 
	C392.721741,681.984924 397.753296,676.108887 402.160339,669.954224 
	C406.868835,663.378540 409.505280,655.770630 408.958984,647.399048 
	C408.076141,633.869141 396.854584,624.729004 384.385803,627.764343 
	C379.717651,624.552856 374.559235,623.981262 369.104462,624.867310 
	C358.973236,626.512939 351.459045,632.438538 345.141296,639.976440 
	C332.565948,654.980408 325.576111,672.699402 321.014038,691.476868 
	C317.569244,705.655823 315.839966,719.967957 319.183899,734.447693 
	C323.141327,751.583984 341.834137,770.756348 358.275696,769.979675 
	C362.830475,774.914978 368.737946,775.722290 374.755768,774.461182 
	C396.171509,769.973389 413.032135,757.398193 427.233185,741.769226 
	C438.347900,729.536987 447.400543,715.434082 457.433868,702.211243 
	C458.384766,700.958069 459.796631,700.054565 461.647644,699.209290 
	C467.443176,701.515686 473.062927,704.906982 479.074341,705.880798 
	C488.706848,707.441223 498.650879,706.967773 508.368988,708.137146 
	C522.843750,709.878784 536.908569,712.985596 547.943909,723.793396 
	C558.416687,734.050049 558.842407,744.640381 549.653442,755.993835 
	C540.762390,766.979309 531.850159,778.031006 524.031921,789.775696 
	C517.442566,799.674316 511.816833,810.340576 506.904938,821.183594 
	C503.845886,827.936523 506.893036,833.181641 513.849670,835.868408 
	C516.498291,836.891357 519.670227,836.559143 523.240723,837.211853 
	C531.973267,843.657898 536.799866,843.627380 545.673889,836.952637 
	C567.409119,820.604309 581.113770,799.285156 585.188843,772.210693 
	C586.463318,763.743652 588.783630,755.721619 594.969910,749.712952 
	C606.184204,738.820801 617.755310,728.288147 629.390320,717.842529 
	C632.376587,715.161560 636.157593,713.365906 639.381287,711.913696 
	C638.754517,713.632202 637.949341,715.308350 637.529968,717.075989 
	C634.774536,728.690002 630.901855,740.198120 629.668762,751.978943 
	C627.523315,772.476074 637.378784,785.937927 657.236511,786.715393 
	C660.803223,788.135803 664.271790,790.387268 667.954834,790.822021 
	C679.368774,792.169128 688.086487,785.811829 696.204712,779.105652 
	C704.785278,772.017395 712.946472,764.391235 720.974548,756.671143 
	C735.834351,742.381348 750.425415,727.812500 765.222778,713.457153 
	C768.029053,710.734680 771.272583,708.463013 774.617493,706.878967 
	C774.709839,722.698303 775.266357,738.531128 774.804871,754.334290 
	C773.564148,796.819397 777.675781,838.783813 785.988281,880.396179 
	C789.086548,895.906494 792.459351,911.339661 799.802551,925.553223 
	C804.315613,934.288940 807.070801,935.694763 816.301758,934.407349 
	C817.491821,935.553284 818.544983,936.904236 819.897156,937.807495 
	C824.285889,940.739014 828.508728,940.593872 831.828613,937.542664 
	C835.604492,934.072266 835.594482,929.973633 833.546021,925.682373 
	C832.836060,924.195068 831.679932,922.927368 830.877808,921.476257 
	C827.521362,915.404602 823.294983,909.619873 821.072083,903.151184 
	C813.837952,882.098999 810.645874,860.137817 808.947388,838.044006 
	C806.604797,807.571289 804.770569,777.055420 803.118225,746.536377 
	C802.670959,738.275024 803.761841,729.938110 803.978882,721.631531 
	C804.563416,699.266418 808.558289,677.846680 818.597107,657.488831 
	C833.243042,627.788147 847.298950,597.786682 861.089233,567.676575 
	C878.916565,528.751648 894.945679,489.073792 907.635010,448.152954 
	C911.369507,436.109924 914.187256,423.686890 916.234802,411.242188 
	C918.501343,397.466522 909.037231,389.094971 896.334412,392.638733 
	C892.073059,387.281860 886.896301,386.465973 881.863403,391.268341 
	C878.187988,394.775452 875.325867,399.177795 872.326111,403.343048 
	C853.004456,430.171875 836.964783,458.860382 823.943604,489.239868 
	C800.298462,544.406189 786.683411,602.142822 779.814087,661.607117 
	C779.474915,664.543274 778.956421,667.458679 778.395935,671.227722 
	C772.912109,663.397705 771.796570,663.360901 765.793823,669.665710 
	C764.304932,671.229492 762.594849,672.583923 761.120605,674.160156 
	C741.446533,695.196655 721.718384,716.183533 702.168335,737.335022 
	C689.955750,750.548096 675.181335,760.395813 659.822571,769.410095 
M474.288269,289.244385 
	C480.970825,298.535767 487.653412,307.827148 494.751312,317.696045 
	C504.813141,303.466034 514.535034,289.716797 524.256897,275.967529 
	C524.680481,276.083588 525.104004,276.199615 525.527588,276.315674 
	C525.527588,293.448242 525.527588,310.580841 525.527588,327.659485 
	C529.712891,327.659485 533.120361,327.659485 536.439941,327.659485 
	C536.439941,299.214844 536.439941,271.128021 536.439941,241.855362 
	C522.200684,261.709167 508.677246,280.564941 494.855469,299.836639 
	C481.092163,280.374847 467.811279,261.595215 453.792175,241.771698 
	C453.792175,271.379639 453.792175,299.544006 453.792175,327.763367 
	C457.449249,327.763367 460.720917,327.763367 464.741089,327.763367 
	C464.741089,310.892609 464.741089,294.259827 464.741089,277.627014 
	C465.087524,277.563629 465.433990,277.500244 465.780426,277.436829 
	C468.483826,281.174774 471.187256,284.912689 474.288269,289.244385 
M367.602936,251.085693 
	C356.930389,258.838043 350.453827,269.168274 349.191071,282.352936 
	C347.278778,302.319336 359.445312,320.711609 378.287567,326.864838 
	C397.351440,333.090515 418.211884,325.325684 428.579071,308.145050 
	C438.893677,291.051514 435.940491,269.498138 421.370789,255.536209 
	C406.422791,241.211746 385.550049,239.312820 367.602936,251.085693 
M843.582397,293.965881 
	C854.782471,287.224854 857.906006,276.892639 855.937927,264.750977 
	C854.189209,253.963104 846.998840,247.332703 836.706665,245.669113 
	C826.326721,243.991333 815.636414,244.233490 804.860840,243.621918 
	C804.860840,272.425079 804.860840,300.091034 804.860840,327.648926 
	C808.732056,327.648926 812.141785,327.648926 816.093140,327.648926 
	C816.093140,317.392487 816.093140,307.491516 816.093140,297.200562 
	C819.611633,297.200562 822.615967,297.479370 825.546265,297.132690 
	C829.556824,296.658142 831.854797,298.244965 833.878784,301.662567 
	C838.542114,309.536499 843.563782,317.202759 848.610413,324.840729 
	C849.493713,326.177521 851.112732,327.672821 852.555969,327.865295 
	C855.905823,328.312103 859.356018,328.007538 863.576599,328.007538 
	C856.433289,316.300476 849.793335,305.418304 843.582397,293.965881 
M697.450256,286.993378 
	C691.525208,286.993378 685.600220,286.993378 679.594849,286.993378 
	C679.594849,290.940216 679.594849,294.178986 679.594849,297.970581 
	C685.153076,297.970581 690.393005,297.970581 696.022339,297.970581 
	C696.022339,299.825470 696.012695,301.122864 696.023804,302.420044 
	C696.141846,316.237213 695.040527,317.362823 681.123169,317.634888 
	C661.970215,318.009308 648.449036,305.482666 648.185974,287.120453 
	C647.912354,268.023376 660.497192,254.854416 679.873657,255.004074 
	C686.684387,255.056671 693.478516,257.248566 700.825684,258.561066 
	C701.708069,256.134064 702.870361,252.937195 704.525940,248.383423 
	C697.028931,246.640442 690.240051,244.404892 683.283264,243.572845 
	C665.296936,241.421677 648.193604,251.177750 640.736206,267.152039 
	C632.766602,284.223480 636.004028,305.247131 648.537903,317.224365 
	C663.451599,331.475739 687.242920,332.282257 705.298889,322.213257 
	C706.277100,321.667786 707.352661,320.227264 707.367493,319.188934 
	C707.519104,308.570679 707.460327,297.949432 707.460327,286.993378 
	C704.061707,286.993378 701.244690,286.993378 697.450256,286.993378 
M297.409729,244.174210 
	C291.121124,244.174210 284.832520,244.174210 278.383484,244.174210 
	C278.383484,272.413574 278.383484,300.106934 278.383484,327.620789 
	C282.189301,327.620789 285.602356,327.620789 289.558655,327.620789 
	C289.558655,317.321716 289.558655,307.405396 289.558655,297.187805 
	C293.097046,297.187805 296.118439,297.478943 299.059479,297.117096 
	C303.106171,296.619232 305.363770,298.304413 307.378815,301.688354 
	C312.063385,309.555359 317.075073,317.232147 322.130676,324.869202 
	C323.015198,326.205322 324.667786,327.668823 326.125702,327.861359 
	C329.481598,328.304565 332.935974,328.001862 337.218262,328.001862 
	C329.965118,316.360382 323.223663,305.540253 316.422241,294.623779 
	C317.373291,293.905121 318.012787,293.389435 318.684265,292.919464 
	C327.687927,286.618286 331.886505,275.480347 329.430817,264.314880 
	C326.981018,253.176071 319.387329,247.448074 308.801575,245.166168 
	C305.412994,244.435715 301.856628,244.483810 297.409729,244.174210 
M753.511719,255.077148 
	C763.282104,255.077148 773.052429,255.077148 782.843384,255.077148 
	C782.843384,251.157135 782.843384,247.913574 782.843384,244.488800 
	C764.779602,244.488800 747.046814,244.488800 729.070312,244.488800 
	C729.070312,272.373657 729.070312,299.940674 729.070312,327.688019 
	C747.734985,327.688019 766.121216,327.688019 784.474243,327.688019 
	C784.474243,323.989777 784.474243,320.625183 784.474243,316.789307 
	C769.453430,316.789307 754.871216,316.789307 740.423767,316.789307 
	C740.423767,308.083771 740.423767,299.865875 740.423767,291.204254 
	C753.272461,291.204254 765.719727,291.204254 778.381897,291.204254 
	C778.381897,287.517700 778.381897,284.292572 778.381897,280.394196 
	C765.522705,280.394196 752.971924,280.394196 740.323608,280.394196 
	C740.323608,271.645416 740.323608,263.576050 740.323608,255.077148 
	C744.585327,255.077148 748.551147,255.077148 753.511719,255.077148 
M935.731323,261.136047 
	C926.444763,283.249664 917.158203,305.363312 907.699646,327.886597 
	C911.957520,327.886597 915.273376,327.886597 918.863586,327.886597 
	C921.448608,321.582611 923.876465,315.213501 926.732910,309.042786 
	C927.366821,307.673462 929.485840,306.193542 930.965698,306.145630 
	C939.456055,305.870514 947.961609,306.104675 956.458252,305.955200 
	C959.028503,305.910004 960.287415,306.723572 961.149963,309.190796 
	C963.015564,314.527557 965.126587,319.788666 967.398987,324.965759 
	C967.944031,326.207458 969.428528,327.720398 970.627319,327.861084 
	C973.989014,328.255585 977.427063,327.998566 981.607239,327.998566 
	C969.197998,298.444427 957.140198,269.727051 944.636169,239.947083 
	C941.420044,247.571289 938.710571,253.994354 935.731323,261.136047 
M574.284241,275.736816 
	C567.082153,292.970490 559.880127,310.204193 552.590393,327.647705 
	C563.386841,328.627625 563.388855,328.628448 567.006775,319.683289 
	C568.377502,316.294312 569.875671,312.948151 571.054688,309.493408 
	C571.923157,306.948639 573.197998,305.859772 576.079468,305.934784 
	C584.393616,306.151276 592.720825,306.151367 601.034973,305.934387 
	C603.904907,305.859497 605.130066,306.919403 606.032532,309.472687 
	C607.858704,314.639160 609.891785,319.741150 612.080078,324.764954 
	C612.637268,326.044220 614.004578,327.716309 615.157837,327.850677 
	C618.647217,328.257263 622.214294,327.997711 626.362793,327.997711 
	C613.951538,298.442902 601.908569,269.765015 589.372681,239.913437 
	C584.114746,252.450592 579.374084,263.754272 574.284241,275.736816 
M254.466064,291.832764 
	C254.466064,288.594421 254.466064,285.356079 254.466064,281.575623 
	C243.257675,281.575623 232.350418,281.575623 221.396118,281.575623 
	C221.396118,272.468414 221.396118,263.918854 221.396118,254.933990 
	C234.187592,254.933990 246.606216,254.933990 259.031586,254.933990 
	C259.031586,251.121384 259.031586,247.772415 259.031586,244.502075 
	C242.443527,244.502075 226.357056,244.502075 210.069214,244.502075 
	C210.069214,272.395447 210.069214,299.955048 210.069214,327.750031 
	C213.746536,327.750031 217.144455,327.750031 221.173950,327.750031 
	C221.173950,315.962891 221.173950,304.422821 221.173950,292.321533 
	C232.445541,292.321533 243.087219,292.321533 254.466064,291.832764 
M880.805115,267.499969 
	C880.805115,287.576263 880.805115,307.652588 880.805115,327.619446 
	C884.993835,327.619446 888.387329,327.619446 891.632812,327.619446 
	C891.632812,299.670685 891.632812,272.104095 891.632812,244.439011 
	C887.991211,244.439011 884.727539,244.439011 880.805115,244.439011 
	C880.805115,251.951508 880.805115,259.225739 880.805115,267.499969 
M699.807983,627.540894 
	C698.514832,631.037903 698.659851,634.335388 702.288147,636.189758 
	C705.900269,638.035828 708.636658,635.895264 711.016541,633.309753 
	C711.241272,633.065613 711.447693,632.798340 711.626038,632.518494 
	C718.781433,621.288147 725.985779,610.088074 733.029785,598.788208 
	C734.144165,597.000549 734.750610,594.808044 735.207764,592.718689 
	C735.969604,589.237122 734.866577,585.811462 731.397949,585.105591 
	C729.268555,584.672180 725.542786,586.055054 724.387085,587.829346 
	C716.031433,600.657593 708.148804,613.793823 699.807983,627.540894 
M1008.780579,585.226685 
	C1006.744019,587.389893 1004.336121,589.311340 1002.740906,591.761841 
	C998.019226,599.015137 993.532898,606.426636 989.122314,613.875671 
	C986.246643,618.732544 983.260986,623.600342 981.164429,628.801758 
	C980.416565,630.657166 981.432312,634.319519 982.957703,635.652222 
	C984.203735,636.740784 987.715088,636.219543 989.656128,635.263306 
	C991.758118,634.227661 993.533752,632.077881 994.878784,630.036499 
	C1000.467651,621.554382 1005.959290,613.002136 1011.234375,604.322266 
	C1013.376404,600.797791 1015.384766,597.032043 1016.539368,593.106995 
	C1018.062866,587.927734 1014.701782,584.430908 1008.780579,585.226685 
M999.300110,591.668030 
	C999.792053,590.618225 1000.887024,589.414185 1000.665161,588.546875 
	C999.939331,585.709045 999.513611,581.799438 997.533325,580.506897 
	C994.445618,578.491455 992.915222,582.141418 991.457458,584.568054 
	C987.430908,591.270996 983.339233,597.934937 979.248962,604.599365 
	C975.244629,611.123779 971.215393,617.632935 967.187073,624.142639 
	C965.228821,627.307129 965.300781,630.386292 968.525940,632.428528 
	C971.914185,634.573975 973.764465,631.648804 975.271240,629.323547 
	C983.230591,617.040344 991.068848,604.678650 999.300110,591.668030 
M708.449707,607.967712 
	C711.570740,602.657654 714.872742,597.442078 717.720459,591.989319 
	C718.804382,589.913818 719.446411,587.219055 719.165771,584.945374 
	C718.951355,583.208435 717.180908,580.685242 715.706604,580.371155 
	C714.366333,580.085571 711.942627,581.950684 710.945984,583.484558 
	C706.142761,590.877075 701.668884,598.483398 697.061829,606.003784 
	C693.323792,612.105530 689.597473,618.214844 685.797668,624.278076 
	C683.752136,627.541992 684.141296,630.547546 687.275146,632.527954 
	C690.359558,634.477173 692.227112,631.802612 693.736633,629.635620 
	C698.587402,622.671997 703.299927,615.612061 708.449707,607.967712 
z"/>
<path fill="#FFFFFF" opacity="1.000000" stroke="none" 
	d="
M1182.000000,562.531372 
	C1181.419067,558.461731 1180.600586,553.939453 1180.293945,549.382751 
	C1176.833618,497.939301 1166.511108,447.878754 1149.683105,399.188934 
	C1127.630005,335.380920 1095.614258,276.992157 1053.552979,224.141190 
	C1004.711792,162.771011 946.078796,112.951813 877.400391,75.051277 
	C817.727905,42.120758 754.388062,19.499329 686.958374,9.094794 
	C664.947083,5.698404 642.657898,4.102338 620.247925,1.341452 
	C807.260437,1.000000 994.520813,1.000000 1182.000000,1.000000 
	C1182.000000,188.020844 1182.000000,375.041748 1182.000000,562.531372 
z"/>
<path fill="#FFFFFF" opacity="1.000000" stroke="none" 
	d="
M617.468628,1182.000000 
	C622.871094,1181.419067 628.730652,1180.652710 634.615112,1180.287354 
	C675.667603,1177.738037 715.816040,1170.086914 755.242310,1158.621582 
	C837.616760,1134.666626 911.525879,1094.977661 976.575806,1038.934082 
	C1039.545166,984.683044 1088.842529,919.917603 1124.714844,845.045105 
	C1148.715210,794.951721 1165.405884,742.393433 1173.844238,687.440430 
	C1177.199707,665.588806 1178.874634,643.479126 1181.657227,621.243469 
	C1182.000000,807.927368 1182.000000,994.854736 1182.000000,1182.000000 
	C993.979187,1182.000000 805.958252,1182.000000 617.468628,1182.000000 
z"/>
<path fill="#FFFFFF" opacity="1.000000" stroke="none" 
	d="
M1.000002,621.468628 
	C1.583117,625.198303 2.431143,629.379150 2.709109,633.597534 
	C6.177491,686.234863 16.960659,737.388428 34.420910,787.093323 
	C56.399586,849.660889 88.080521,906.950317 129.438980,958.830627 
	C184.379761,1027.748901 251.248764,1081.913818 330.330414,1120.905029 
	C382.759491,1146.755249 437.785919,1164.783325 495.526703,1173.859253 
	C518.339233,1177.444946 541.486633,1178.900024 564.740723,1181.662598 
	C377.073120,1182.000000 189.146210,1182.000000 1.000000,1182.000000 
	C1.000000,995.312500 1.000000,808.624878 1.000002,621.468628 
z"/>
<path fill="#FFFFFF" opacity="1.000000" stroke="none" 
	d="
M561.531372,0.999999 
	C557.806091,1.578519 553.629456,2.421740 549.415771,2.695797 
	C487.594727,6.716604 428.118988,20.907366 370.731567,44.010174 
	C307.912750,69.299538 251.018082,104.302460 200.380081,149.270401 
	C135.937668,206.497070 86.254875,274.572021 51.288544,353.387146 
	C29.698896,402.050873 15.182176,452.774078 7.398380,505.366974 
	C4.647784,523.951965 3.531177,542.778809 1.334284,561.747620 
	C1.000000,375.072906 1.000000,188.145813 1.000000,1.000000 
	C187.687500,1.000000 374.375092,1.000000 561.531372,0.999999 
z"/>
<path fill="#FCFDFC" opacity="1.000000" stroke="none" 
	d="
M482.989899,693.692871 
	C497.000366,695.895264 511.010834,698.097717 525.702393,700.555908 
	C539.512573,705.318970 549.978760,713.309570 557.755249,724.811401 
	C559.520935,727.423035 561.291626,730.032410 563.000854,732.680969 
	C565.408264,736.411194 568.275391,736.284363 571.195618,733.505188 
	C572.937012,731.848022 574.327332,729.821838 575.875427,727.961548 
	C592.858215,713.256348 609.731262,698.421387 626.877197,683.908936 
	C633.851746,678.005676 641.302307,672.638733 648.752380,667.331177 
	C655.393127,662.600098 657.257996,663.217407 660.988037,670.863098 
	C663.879395,666.719604 666.342407,662.608704 669.410828,659.014709 
	C671.198364,656.921021 674.095459,654.218689 676.236328,654.427368 
	C678.308594,654.629395 680.051514,658.209961 681.898071,660.987427 
	C679.602722,665.550415 677.645691,669.645325 675.044006,673.278564 
	C661.913330,691.615662 652.984192,711.935242 646.370544,733.353027 
	C642.902771,744.583130 641.126282,756.049622 642.739319,767.830688 
	C643.357666,772.347046 646.136841,774.827454 650.107361,773.880066 
	C653.598083,773.047180 656.896423,771.408020 660.279724,770.125000 
	C675.181335,760.395813 689.955750,750.548096 702.168335,737.335022 
	C721.718384,716.183533 741.446533,695.196655 761.120605,674.160156 
	C762.594849,672.583923 764.304932,671.229492 765.793823,669.665710 
	C771.796570,663.360901 772.912109,663.397705 778.395935,671.227722 
	C778.956421,667.458679 779.474915,664.543274 779.814087,661.607117 
	C786.683411,602.142822 800.298462,544.406189 823.943604,489.239868 
	C836.964783,458.860382 853.004456,430.171875 872.326111,403.343048 
	C875.325867,399.177795 878.187988,394.775452 881.863403,391.268341 
	C886.896301,386.465973 892.073059,387.281860 896.657349,393.214844 
	C899.902588,399.120941 901.047729,404.919678 899.403381,410.684540 
	C893.299622,432.084229 887.767822,453.709015 880.367126,474.665100 
	C859.128601,534.805054 832.255859,592.574097 803.598999,649.454651 
	C792.249573,671.981934 787.756592,695.385925 786.948669,720.101074 
	C785.667175,759.304810 787.753113,798.340637 792.201721,837.266663 
	C794.601562,858.265320 797.478638,879.211548 804.031494,899.426147 
	C806.447510,906.879028 809.218201,914.082703 815.604492,919.412231 
	C819.569214,922.720886 819.360718,929.443665 815.919739,933.818176 
	C807.070801,935.694763 804.315613,934.288940 799.802551,925.553223 
	C792.459351,911.339661 789.086548,895.906494 785.988281,880.396179 
	C777.675781,838.783813 773.564148,796.819397 774.804871,754.334290 
	C775.266357,738.531128 774.709839,722.698303 774.562378,706.040100 
	C773.551514,698.291809 772.595825,691.382324 771.563721,683.920715 
	C769.128296,686.766907 767.337097,689.191162 765.219116,691.284912 
	C739.556030,716.654358 713.961853,742.095459 688.081238,767.241516 
	C679.255188,775.817139 669.662964,783.595276 657.001709,786.058594 
	C637.378784,785.937927 627.523315,772.476074 629.668762,751.978943 
	C630.901855,740.198120 634.774536,728.690002 637.529968,717.075989 
	C637.949341,715.308350 638.754517,713.632202 639.648743,711.253357 
	C644.810181,700.480835 649.704224,690.368652 655.005615,679.414673 
	C628.485168,699.050659 604.218384,719.768921 581.400696,742.230896 
	C574.555908,748.968933 570.387268,756.608276 569.197632,766.092468 
	C565.283447,797.299988 548.715332,820.227783 522.603699,836.844482 
	C519.670227,836.559143 516.498291,836.891357 513.849670,835.868408 
	C506.893036,833.181641 503.845886,827.936523 506.904938,821.183594 
	C511.816833,810.340576 517.442566,799.674316 524.031921,789.775696 
	C531.850159,778.031006 540.762390,766.979309 549.653442,755.993835 
	C558.842407,744.640381 558.416687,734.050049 547.943909,723.793396 
	C536.908569,712.985596 522.843750,709.878784 508.368988,708.137146 
	C498.650879,706.967773 488.706848,707.441223 479.074341,705.880798 
	C473.062927,704.906982 467.443176,701.515686 461.173950,698.799316 
	C454.987305,693.148926 451.893402,686.764587 452.575256,678.644836 
	C450.920959,680.637634 449.856323,682.495300 448.769043,684.339478 
	C436.764984,704.700500 423.911469,724.444458 406.815002,741.024170 
	C392.908081,754.510620 377.370911,765.261292 358.004639,769.385864 
	C341.834137,770.756348 323.141327,751.583984 319.183899,734.447693 
	C315.839966,719.967957 317.569244,705.655823 321.014038,691.476868 
	C325.576111,672.699402 332.565948,654.980408 345.141296,639.976440 
	C351.459045,632.438538 358.973236,626.512939 369.104462,624.867310 
	C374.559235,623.981262 379.717651,624.552856 384.903625,628.155396 
	C393.274048,636.275940 393.853699,645.607422 390.479279,655.248535 
	C385.645233,669.059875 376.299744,679.365173 363.862274,686.933716 
	C361.204895,686.945923 358.547516,686.958191 355.330872,686.667114 
	C350.997223,680.829651 347.222870,675.295471 342.918243,668.983704 
	C341.095581,672.284241 339.295807,674.858398 338.166656,677.699158 
	C330.843231,696.123474 327.063721,715.157043 329.213623,735.049133 
	C329.931885,741.695068 332.833832,747.542664 337.945923,751.890564 
	C342.821075,756.036865 348.475281,758.126282 354.997498,755.961731 
	C362.583130,752.769104 370.779144,750.543213 377.643951,746.208923 
	C401.660370,731.045471 419.254028,709.660828 433.779877,685.566101 
	C437.215454,679.867310 440.481476,674.055725 444.168762,668.524841 
	C445.494232,666.536682 448.063995,663.713379 449.648254,663.959473 
	C451.925903,664.313354 453.821686,667.125427 455.573517,668.625427 
	C460.736603,660.631592 466.030640,651.140991 472.554413,642.588501 
	C489.057861,620.952942 507.008118,600.582153 529.498901,584.849670 
	C534.619568,581.267700 540.492920,578.694580 546.196045,576.034973 
	C550.369751,574.088623 554.028381,574.940369 556.243164,580.237793 
	C555.238831,582.649841 554.449951,585.124817 552.779297,586.120667 
	C521.716248,604.636536 497.739258,630.409607 477.514374,659.884583 
	C472.771790,666.796204 469.263062,674.644470 465.866302,682.360962 
	C463.168274,688.490234 465.018799,691.369934 471.602844,692.592896 
	C475.337769,693.286682 479.190308,693.347168 482.989899,693.692871 
M830.619568,564.588928 
	C837.309631,549.412170 844.502075,534.433044 850.570618,519.011719 
	C859.428101,496.503326 867.478027,473.677155 876.226013,450.330566 
	C879.669800,439.039001 883.265869,427.789978 886.440063,416.423126 
	C887.149353,413.882996 886.378113,410.929443 886.288574,408.166290 
	C884.096863,409.887451 881.391174,411.226929 879.788147,413.385315 
	C834.470032,474.405609 812.893311,544.769836 799.515015,618.310913 
	C799.142761,620.356995 800.236694,622.669861 800.646973,624.858276 
	C801.226196,624.868103 801.805481,624.877930 802.384705,624.887756 
	C803.468140,622.411987 804.502441,619.913391 805.642822,617.464172 
	C813.781006,599.984314 821.940857,582.514648 830.619568,564.588928 
M357.640930,647.129578 
	C356.258759,648.322815 354.356110,649.254028 353.597198,650.761108 
	C351.721741,654.485474 348.498199,658.923401 349.294678,662.238953 
	C350.233978,666.149475 354.779846,669.232483 357.919556,672.524048 
	C358.291779,672.914246 359.847900,672.650391 360.529846,672.198669 
	C370.815186,665.384705 378.708221,656.644287 381.813751,644.385986 
	C383.448364,637.933716 380.777710,635.101501 374.457062,637.499451 
	C368.708008,639.680603 363.611237,643.580994 357.640930,647.129578 
M536.139526,806.654114 
	C541.410400,798.421997 546.681274,790.189880 551.952087,781.957764 
	C551.546631,781.494873 551.141174,781.031982 550.735657,780.569092 
	C549.025635,781.440247 546.745911,781.878601 545.700317,783.254639 
	C539.993774,790.764771 534.471436,798.424866 529.182739,806.234497 
	C528.108337,807.821045 528.308044,810.270386 527.920288,812.321960 
	C528.492065,812.504700 529.063782,812.687378 529.635559,812.870056 
	C531.642456,810.977356 533.649414,809.084656 536.139526,806.654114 
z"/>
<path fill="#FCFDFC" opacity="1.000000" stroke="none" 
	d="
M265.005219,967.152100 
	C252.514801,968.387451 245.658569,962.405273 242.447113,950.491089 
	C237.784103,933.191833 233.575378,915.592468 231.351746,897.848022 
	C225.712982,852.851135 227.370270,807.651672 231.286118,762.630188 
	C236.301880,704.962708 247.360458,648.296936 262.573639,592.462097 
	C266.677643,577.399719 271.604980,562.562012 275.732483,547.505432 
	C276.314972,545.380676 274.485413,542.594727 273.118958,539.789551 
	C266.429840,538.295898 260.437225,536.772217 254.349380,536.032715 
	C241.530319,534.475464 228.688446,532.688660 215.807358,532.143250 
	C185.659378,530.866943 155.539703,532.416260 125.660866,536.402893 
	C111.747986,538.259216 98.019073,541.977173 84.452003,545.736328 
	C77.788689,547.582581 71.457909,551.103760 69.832726,559.242737 
	C69.561295,560.602051 67.709488,561.645874 66.587944,562.835449 
	C56.719894,563.324280 54.265377,561.855225 52.327885,554.959961 
	C51.007660,550.261475 52.963104,547.414246 56.711159,544.967529 
	C69.036690,536.921387 82.837265,532.425415 96.928886,529.186096 
	C142.520889,518.705383 188.668793,515.105408 235.308090,519.815186 
	C247.048477,521.000732 258.741577,522.739807 270.409821,524.528381 
	C279.998230,525.998169 283.109711,524.413208 287.217560,515.491638 
	C298.194061,491.652252 308.767212,467.607941 320.478760,444.133057 
	C327.975983,429.105438 337.215118,414.908173 349.527679,403.169922 
	C352.959259,399.898346 357.065369,397.089905 361.316559,394.988464 
	C365.940094,392.702942 370.752869,393.069000 374.695526,398.214111 
	C376.117157,404.574249 378.544769,410.537109 377.918732,416.159943 
	C376.790222,426.295593 374.809906,436.570526 371.437561,446.173492 
	C364.394043,466.230408 356.283417,485.915771 348.460358,505.694122 
	C345.712555,512.641235 342.507141,519.406677 339.542847,526.269043 
	C338.043915,529.738953 339.014771,532.307556 342.814545,532.974548 
	C348.176575,533.915649 353.610352,534.447815 359.013458,535.154785 
	C387.857391,537.598633 416.668091,540.625061 445.557343,542.274841 
	C463.849487,543.319458 482.205139,541.276917 500.022919,536.710938 
	C507.628845,534.761841 514.839172,531.174072 522.116150,528.065979 
	C527.977966,525.562317 527.024292,530.992249 528.835938,534.077637 
	C529.121521,539.382385 526.680359,542.137390 522.745728,544.073730 
	C511.477539,549.619080 499.632843,553.174377 487.229095,555.108215 
	C465.719604,558.461609 444.115051,557.634216 422.525146,556.686157 
	C409.238800,556.102783 395.944702,555.240784 382.718384,553.879272 
	C370.456116,552.617004 358.279327,550.524841 345.727478,548.595032 
	C343.597687,548.047180 341.776031,547.811279 340.018005,547.338684 
	C333.163269,545.495850 328.687286,547.234131 325.563873,553.552307 
	C304.339172,596.486633 282.882416,639.311157 262.213745,682.512329 
	C256.593567,694.259460 251.410599,706.882446 249.541580,719.619263 
	C245.608734,746.420288 242.922150,773.513916 241.693726,800.576843 
	C239.805008,842.185974 239.975311,883.870605 248.104797,925.008118 
	C249.865616,933.918457 252.991974,942.572449 255.768234,951.255310 
	C256.235321,952.716125 257.971039,954.312195 259.425659,954.699341 
	C260.210052,954.908081 261.774078,952.790527 262.747894,951.537292 
	C264.065491,949.841614 265.153992,947.967834 266.673920,946.227112 
	C267.668732,946.168335 268.330444,946.052917 268.992126,945.937500 
	C270.815521,948.094788 272.638916,950.252075 274.546753,953.084045 
	C274.366638,960.339111 271.847290,965.299011 265.005219,967.152100 
M294.894104,587.681335 
	C300.584534,576.119324 306.310211,564.574463 311.923126,552.974915 
	C312.669312,551.432922 312.842987,549.613892 313.330536,547.160583 
	C310.625702,545.809509 308.052399,543.771912 305.193665,543.224243 
	C291.667419,540.632996 291.687531,540.797302 286.635834,553.415771 
	C275.767822,580.562500 269.090149,608.868896 263.357513,637.432495 
	C262.946075,639.482605 263.303650,641.687134 263.303650,644.435608 
	C269.316956,641.169128 282.486847,616.730225 294.894104,587.681335 
M363.880615,433.552612 
	C365.150421,427.225464 366.511688,420.914246 367.620880,414.559082 
	C367.874359,413.106842 367.258057,411.502869 367.042084,409.968719 
	C365.199799,410.323944 362.795959,410.065216 361.615906,411.144501 
	C357.336975,415.058014 352.916626,419.020813 349.541626,423.683136 
	C335.660950,442.858246 323.086182,462.864197 313.577759,484.625824 
	C308.851746,495.442017 304.369568,506.370148 300.027405,517.346680 
	C297.133057,524.663208 298.782318,527.473816 306.547974,528.728455 
	C309.627869,529.226013 312.841339,528.896729 316.766113,529.114990 
	C321.893372,528.838196 325.662262,526.260742 327.835815,521.778687 
	C341.622101,493.349426 354.149475,464.399170 363.880615,433.552612 
z"/>
<path fill="#FCFDFC" opacity="1.000000" stroke="none" 
	d="
M897.865845,933.717041 
	C889.262573,935.788086 886.348083,934.468750 881.918640,926.105896 
	C874.503174,912.105347 871.108765,896.824219 868.017578,881.473572 
	C859.370544,838.533630 855.253418,795.214539 856.641235,751.369934 
	C857.115234,736.394714 856.502441,721.384949 856.373413,706.391052 
	C856.364807,705.393188 856.346008,704.377686 856.164368,703.401611 
	C854.212952,692.918213 853.974060,683.330322 859.192505,672.803772 
	C863.399658,664.317139 862.530579,653.320923 863.946777,643.442749 
	C874.920654,566.896667 896.730652,494.042084 937.793274,427.820953 
	C944.455322,417.077240 951.756836,406.724884 958.936951,396.311768 
	C960.513855,394.024780 962.592529,391.908112 964.860352,390.308746 
	C969.982605,386.696259 974.124939,387.583771 978.530518,393.267456 
	C981.666199,399.223877 982.573547,404.884277 981.217529,410.798248 
	C979.731567,417.279144 978.526245,423.869324 976.437500,430.159149 
	C968.319275,454.605286 960.641174,479.235291 951.435364,503.274597 
	C932.565247,552.550476 909.708252,600.086487 886.725952,647.551208 
	C881.891235,657.536194 877.146912,667.748169 874.042297,678.347961 
	C868.326843,697.861816 868.618408,718.207947 868.360535,738.338928 
	C867.926941,772.197083 870.002502,805.977844 874.433167,839.519653 
	C876.976013,858.770081 881.055847,877.848083 885.171570,896.846069 
	C887.026062,905.406250 890.383545,913.613770 897.656372,919.638489 
	C901.335144,922.685974 901.021240,929.550110 897.865845,933.717041 
M912.459351,564.488586 
	C921.327698,543.895508 930.580017,523.456787 938.942871,502.660400 
	C945.627747,486.036713 951.230347,468.977844 957.753540,451.545593 
	C961.362183,439.619781 965.036743,427.713196 968.525879,415.752533 
	C969.256592,413.247528 971.406860,409.823547 967.769104,408.403961 
	C966.581177,407.940369 963.506897,410.824615 962.052856,412.749878 
	C936.644470,446.391449 918.616150,483.864227 905.121521,523.617798 
	C894.792725,554.045349 887.082703,585.161316 881.511353,616.804565 
	C881.010681,619.648010 880.197815,622.712708 884.078064,625.058044 
	C885.300781,622.309814 886.367126,619.809937 887.515564,617.348389 
	C895.659180,599.893738 903.819580,582.446899 912.459351,564.488586 
z"/>
<path fill="#558369" opacity="1.000000" stroke="none" 
	d="
M898.058838,934.019226 
	C901.021240,929.550110 901.335144,922.685974 897.656372,919.638489 
	C890.383545,913.613770 887.026062,905.406250 885.171570,896.846069 
	C881.055847,877.848083 876.976013,858.770081 874.433167,839.519653 
	C870.002502,805.977844 867.926941,772.197083 868.360535,738.338928 
	C868.618408,718.207947 868.326843,697.861816 874.042297,678.347961 
	C877.146912,667.748169 881.891235,657.536194 886.725952,647.551208 
	C909.708252,600.086487 932.565247,552.550476 951.435364,503.274597 
	C960.641174,479.235291 968.319275,454.605286 976.437500,430.159149 
	C978.526245,423.869324 979.731567,417.279144 981.217529,410.798248 
	C982.573547,404.884277 981.666199,399.223877 978.778259,393.489990 
	C989.635132,387.059387 998.010193,396.841522 997.729431,406.278961 
	C997.475098,414.826019 995.924316,423.456299 993.930664,431.807709 
	C987.027039,460.728333 976.421082,488.454071 964.946716,515.783508 
	C951.932556,546.780212 938.193665,577.479614 924.352661,608.119690 
	C915.101807,628.598328 904.409973,648.450378 895.763245,669.167175 
	C891.285400,679.895752 888.565369,691.760254 887.347351,703.352844 
	C885.509888,720.841858 884.870911,738.557678 885.209351,756.148438 
	C885.614929,777.228760 887.023865,798.332703 889.033508,819.327271 
	C891.028564,840.169006 893.752991,860.982361 897.262268,881.620239 
	C899.001099,891.845947 902.918762,901.759094 906.472046,911.588989 
	C907.840515,915.374573 910.856873,918.591248 913.256897,921.971619 
	C918.566406,929.449951 917.339966,936.894287 910.194275,939.254333 
	C904.921875,940.995667 901.227051,938.405945 898.058838,934.019226 
z"/>
<path fill="#558269" opacity="1.000000" stroke="none" 
	d="
M816.110718,934.112793 
	C819.360718,929.443665 819.569214,922.720886 815.604492,919.412231 
	C809.218201,914.082703 806.447510,906.879028 804.031494,899.426147 
	C797.478638,879.211548 794.601562,858.265320 792.201721,837.266663 
	C787.753113,798.340637 785.667175,759.304810 786.948669,720.101074 
	C787.756592,695.385925 792.249573,671.981934 803.598999,649.454651 
	C832.255859,592.574097 859.128601,534.805054 880.367126,474.665100 
	C887.767822,453.709015 893.299622,432.084229 899.403381,410.684540 
	C901.047729,404.919678 899.902588,399.120941 896.927246,393.419098 
	C909.037231,389.094971 918.501343,397.466522 916.234802,411.242188 
	C914.187256,423.686890 911.369507,436.109924 907.635010,448.152954 
	C894.945679,489.073792 878.916565,528.751648 861.089233,567.676575 
	C847.298950,597.786682 833.243042,627.788147 818.597107,657.488831 
	C808.558289,677.846680 804.563416,699.266418 803.978882,721.631531 
	C803.761841,729.938110 802.670959,738.275024 803.118225,746.536377 
	C804.770569,777.055420 806.604797,807.571289 808.947388,838.044006 
	C810.645874,860.137817 813.837952,882.098999 821.072083,903.151184 
	C823.294983,909.619873 827.521362,915.404602 830.877808,921.476257 
	C831.679932,922.927368 832.836060,924.195068 833.546021,925.682373 
	C835.594482,929.973633 835.604492,934.072266 831.828613,937.542664 
	C828.508728,940.593872 824.285889,940.739014 819.897156,937.807495 
	C818.544983,936.904236 817.491821,935.553284 816.110718,934.112793 
z"/>
<path fill="#FCFDFC" opacity="1.000000" stroke="none" 
	d="
M938.004944,786.062683 
	C919.836914,784.696350 911.251648,775.633301 910.855164,757.191589 
	C910.444336,738.085388 916.212097,720.310730 924.589111,703.648621 
	C932.394043,688.124512 941.951599,673.469055 951.046082,658.620117 
	C952.322449,656.536194 955.666504,654.029907 957.496033,654.408997 
	C959.688843,654.863281 961.283569,658.204529 963.105469,661.002014 
	C962.309387,663.180542 961.607239,664.688782 960.771118,666.118835 
	C953.653259,678.293396 945.692566,690.057800 939.573303,702.713440 
	C930.962585,720.521545 923.803162,739.011719 923.527344,759.310242 
	C923.319458,774.612793 927.598389,777.337158 941.166443,770.523865 
	C960.945679,758.274048 978.546265,743.544922 994.138916,726.172363 
	C1011.472595,706.860291 1029.608154,688.268250 1047.380127,669.349182 
	C1053.218018,663.134521 1055.487549,663.512512 1059.054932,672.072021 
	C1055.008911,678.906555 1051.475708,685.579224 1046.600708,691.057861 
	C1020.010986,720.939453 990.910828,748.300110 960.861267,774.641907 
	C954.376099,780.326843 946.844910,784.704041 938.004944,786.062683 
z"/>
<path fill="#FAFCFB" opacity="1.000000" stroke="none" 
	d="
M474.089478,288.947510 
	C471.187256,284.912689 468.483826,281.174774 465.780426,277.436829 
	C465.433990,277.500244 465.087524,277.563629 464.741089,277.627014 
	C464.741089,294.259827 464.741089,310.892609 464.741089,327.763367 
	C460.720917,327.763367 457.449249,327.763367 453.792175,327.763367 
	C453.792175,299.544006 453.792175,271.379639 453.792175,241.771698 
	C467.811279,261.595215 481.092163,280.374847 494.855469,299.836639 
	C508.677246,280.564941 522.200684,261.709167 536.439941,241.855362 
	C536.439941,271.128021 536.439941,299.214844 536.439941,327.659485 
	C533.120361,327.659485 529.712891,327.659485 525.527588,327.659485 
	C525.527588,310.580841 525.527588,293.448242 525.527588,276.315674 
	C525.104004,276.199615 524.680481,276.083588 524.256897,275.967529 
	C514.535034,289.716797 504.813141,303.466034 494.751312,317.696045 
	C487.653412,307.827148 480.970825,298.535767 474.089478,288.947510 
z"/>
<path fill="#568068" opacity="1.000000" stroke="none" 
	d="
M522.922241,837.028198 
	C548.715332,820.227783 565.283447,797.299988 569.197632,766.092468 
	C570.387268,756.608276 574.555908,748.968933 581.400696,742.230896 
	C604.218384,719.768921 628.485168,699.050659 655.005615,679.414673 
	C649.704224,690.368652 644.810181,700.480835 639.744812,710.878296 
	C636.157593,713.365906 632.376587,715.161560 629.390320,717.842529 
	C617.755310,728.288147 606.184204,738.820801 594.969910,749.712952 
	C588.783630,755.721619 586.463318,763.743652 585.188843,772.210693 
	C581.113770,799.285156 567.409119,820.604309 545.673889,836.952637 
	C536.799866,843.627380 531.973267,843.657898 522.922241,837.028198 
z"/>
<path fill="#55846A" opacity="1.000000" stroke="none" 
	d="
M346.064880,548.798157 
	C358.279327,550.524841 370.456116,552.617004 382.718384,553.879272 
	C395.944702,555.240784 409.238800,556.102783 422.525146,556.686157 
	C444.115051,557.634216 465.719604,558.461609 487.229095,555.108215 
	C499.632843,553.174377 511.477539,549.619080 522.745728,544.073730 
	C526.680359,542.137390 529.121521,539.382385 528.999023,534.397095 
	C530.446350,533.467407 531.886292,533.021423 533.229492,532.374512 
	C536.875183,530.618713 540.344727,530.270691 543.145203,533.775635 
	C546.038208,537.396301 545.810425,541.495911 543.158325,544.842590 
	C541.065552,547.483459 538.154053,549.829956 535.119446,551.307922 
	C523.023987,557.198730 510.084076,560.445984 496.759979,561.877075 
	C487.182129,562.905823 477.519745,563.953796 467.918060,563.772827 
	C451.974976,563.472412 435.997040,562.737976 420.130768,561.191406 
	C397.955170,559.029968 375.876129,555.890137 353.737701,553.324585 
	C349.368805,552.818420 345.474274,554.335693 342.921082,558.193665 
	C341.546295,560.270996 340.297699,562.449829 339.181458,564.677673 
	C324.252472,594.472961 309.079559,624.150757 294.558655,654.144043 
	C286.004791,671.812073 277.145844,689.535339 270.949554,708.077637 
	C265.999268,722.891174 264.110931,738.886963 262.189392,754.520935 
	C258.000885,788.599121 257.239685,822.903198 258.097992,857.194580 
	C258.839813,886.832397 261.036499,916.373352 268.905945,945.564331 
	C268.330444,946.052917 267.668732,946.168335 266.428711,945.932251 
	C265.113434,943.563904 264.192749,941.593689 263.667084,939.523132 
	C256.248108,910.298218 254.972687,880.377930 254.124863,850.468384 
	C253.725021,836.362488 254.321182,822.202148 255.051804,808.096802 
	C256.056549,788.698486 257.717194,769.335083 258.914032,749.945435 
	C260.475555,724.647888 267.588928,700.943054 278.816376,678.337952 
	C293.772034,648.226501 308.445953,617.973389 323.620300,587.973022 
	C330.409912,574.549683 335.397095,560.023987 346.064880,548.798157 
z"/>
<path fill="#FBFCFB" opacity="1.000000" stroke="none" 
	d="
M367.905365,250.892670 
	C385.550049,239.312820 406.422791,241.211746 421.370789,255.536209 
	C435.940491,269.498138 438.893677,291.051514 428.579071,308.145050 
	C418.211884,325.325684 397.351440,333.090515 378.287567,326.864838 
	C359.445312,320.711609 347.278778,302.319336 349.191071,282.352936 
	C350.453827,269.168274 356.930389,258.838043 367.905365,250.892670 
M398.459442,317.271301 
	C415.384277,313.219696 425.761230,297.136597 422.390320,280.181122 
	C419.005798,263.157196 403.739563,251.964172 387.450745,254.563904 
	C369.930237,257.360199 358.433258,273.460205 361.088470,291.480743 
	C363.615173,308.628815 379.763763,320.112488 398.459442,317.271301 
z"/>
<path fill="#F9FBFA" opacity="1.000000" stroke="none" 
	d="
M843.367920,294.251007 
	C849.793335,305.418304 856.433289,316.300476 863.576599,328.007538 
	C859.356018,328.007538 855.905823,328.312103 852.555969,327.865295 
	C851.112732,327.672821 849.493713,326.177521 848.610413,324.840729 
	C843.563782,317.202759 838.542114,309.536499 833.878784,301.662567 
	C831.854797,298.244965 829.556824,296.658142 825.546265,297.132690 
	C822.615967,297.479370 819.611633,297.200562 816.093140,297.200562 
	C816.093140,307.491516 816.093140,317.392487 816.093140,327.648926 
	C812.141785,327.648926 808.732056,327.648926 804.860840,327.648926 
	C804.860840,300.091034 804.860840,272.425079 804.860840,243.621918 
	C815.636414,244.233490 826.326721,243.991333 836.706665,245.669113 
	C846.998840,247.332703 854.189209,253.963104 855.937927,264.750977 
	C857.906006,276.892639 854.782471,287.224854 843.367920,294.251007 
M815.892273,265.531860 
	C815.892273,272.274078 815.892273,279.016296 815.892273,286.093414 
	C821.160706,286.093414 825.783020,286.277344 830.385376,286.053345 
	C838.776245,285.644958 844.146118,280.243225 844.833679,271.845642 
	C845.481750,263.931885 840.468506,256.792358 832.546204,255.683243 
	C827.244934,254.941040 821.755493,255.542130 815.892273,255.542130 
	C815.892273,258.644257 815.892273,261.595245 815.892273,265.531860 
z"/>
<path fill="#558168" opacity="1.000000" stroke="none" 
	d="
M938.152222,786.372253 
	C946.844910,784.704041 954.376099,780.326843 960.861267,774.641907 
	C990.910828,748.300110 1020.010986,720.939453 1046.600708,691.057861 
	C1051.475708,685.579224 1055.008911,678.906555 1059.204102,672.405884 
	C1060.822632,671.575134 1062.377930,670.856201 1063.979126,670.732910 
	C1066.569702,670.533447 1070.271484,669.682617 1071.541504,670.999512 
	C1073.386841,672.912903 1074.365234,676.598816 1074.083130,679.362427 
	C1073.804077,682.095764 1071.870972,684.923096 1070.027588,687.192810 
	C1053.644897,707.362671 1035.511719,725.863342 1016.300415,743.347534 
	C1004.994446,753.637146 994.100952,764.380859 982.762512,774.633362 
	C974.979370,781.671143 966.817444,788.423157 956.046509,790.410889 
	C949.723389,791.577881 943.447632,791.561523 938.152222,786.372253 
z"/>
<path fill="#FBFDFC" opacity="1.000000" stroke="none" 
	d="
M697.938965,286.993378 
	C701.244690,286.993378 704.061707,286.993378 707.460327,286.993378 
	C707.460327,297.949432 707.519104,308.570679 707.367493,319.188934 
	C707.352661,320.227264 706.277100,321.667786 705.298889,322.213257 
	C687.242920,332.282257 663.451599,331.475739 648.537903,317.224365 
	C636.004028,305.247131 632.766602,284.223480 640.736206,267.152039 
	C648.193604,251.177750 665.296936,241.421677 683.283264,243.572845 
	C690.240051,244.404892 697.028931,246.640442 704.525940,248.383423 
	C702.870361,252.937195 701.708069,256.134064 700.825684,258.561066 
	C693.478516,257.248566 686.684387,255.056671 679.873657,255.004074 
	C660.497192,254.854416 647.912354,268.023376 648.185974,287.120453 
	C648.449036,305.482666 661.970215,318.009308 681.123169,317.634888 
	C695.040527,317.362823 696.141846,316.237213 696.023804,302.420044 
	C696.012695,301.122864 696.022339,299.825470 696.022339,297.970581 
	C690.393005,297.970581 685.153076,297.970581 679.594849,297.970581 
	C679.594849,294.178986 679.594849,290.940216 679.594849,286.993378 
	C685.600220,286.993378 691.525208,286.993378 697.938965,286.993378 
z"/>
<path fill="#55846A" opacity="1.000000" stroke="none" 
	d="
M358.927979,534.757812 
	C353.610352,534.447815 348.176575,533.915649 342.814545,532.974548 
	C339.014771,532.307556 338.043915,529.738953 339.542847,526.269043 
	C342.507141,519.406677 345.712555,512.641235 348.460358,505.694122 
	C356.283417,485.915771 364.394043,466.230408 371.437561,446.173492 
	C374.809906,436.570526 376.790222,426.295593 377.918732,416.159943 
	C378.544769,410.537109 376.117157,404.574249 374.990234,398.399872 
	C384.565247,391.734558 394.271851,401.695709 394.944427,412.411591 
	C395.606750,422.964691 394.854309,433.389587 391.015930,443.344696 
	C380.852966,469.703156 370.464691,495.975494 360.459778,522.393311 
	C359.070862,526.060669 359.340576,530.356201 358.927979,534.757812 
z"/>
<path fill="#FCFDFD" opacity="1.000000" stroke="none" 
	d="
M297.893372,244.174957 
	C301.856628,244.483810 305.412994,244.435715 308.801575,245.166168 
	C319.387329,247.448074 326.981018,253.176071 329.430817,264.314880 
	C331.886505,275.480347 327.687927,286.618286 318.684265,292.919464 
	C318.012787,293.389435 317.373291,293.905121 316.422241,294.623779 
	C323.223663,305.540253 329.965118,316.360382 337.218262,328.001862 
	C332.935974,328.001862 329.481598,328.304565 326.125702,327.861359 
	C324.667786,327.668823 323.015198,326.205322 322.130676,324.869202 
	C317.075073,317.232147 312.063385,309.555359 307.378815,301.688354 
	C305.363770,298.304413 303.106171,296.619232 299.059479,297.117096 
	C296.118439,297.478943 293.097046,297.187805 289.558655,297.187805 
	C289.558655,307.405396 289.558655,317.321716 289.558655,327.620789 
	C285.602356,327.620789 282.189301,327.620789 278.383484,327.620789 
	C278.383484,300.106934 278.383484,272.413574 278.383484,244.174210 
	C284.832520,244.174210 291.121124,244.174210 297.893372,244.174957 
M318.181000,272.234619 
	C318.207428,262.746277 314.155457,256.755798 305.886902,255.608795 
	C300.579346,254.872543 295.086670,255.470703 289.681885,255.470703 
	C289.681885,265.816315 289.681885,275.841217 289.681885,286.170441 
	C294.269226,286.170441 298.419495,286.264801 302.564026,286.151093 
	C311.650604,285.901733 316.107574,282.109863 318.181000,272.234619 
z"/>
<path fill="#FCFDFC" opacity="1.000000" stroke="none" 
	d="
M753.014343,255.077148 
	C748.551147,255.077148 744.585327,255.077148 740.323608,255.077148 
	C740.323608,263.576050 740.323608,271.645416 740.323608,280.394196 
	C752.971924,280.394196 765.522705,280.394196 778.381897,280.394196 
	C778.381897,284.292572 778.381897,287.517700 778.381897,291.204254 
	C765.719727,291.204254 753.272461,291.204254 740.423767,291.204254 
	C740.423767,299.865875 740.423767,308.083771 740.423767,316.789307 
	C754.871216,316.789307 769.453430,316.789307 784.474243,316.789307 
	C784.474243,320.625183 784.474243,323.989777 784.474243,327.688019 
	C766.121216,327.688019 747.734985,327.688019 729.070312,327.688019 
	C729.070312,299.940674 729.070312,272.373657 729.070312,244.488800 
	C747.046814,244.488800 764.779602,244.488800 782.843384,244.488800 
	C782.843384,247.913574 782.843384,251.157135 782.843384,255.077148 
	C773.052429,255.077148 763.282104,255.077148 753.014343,255.077148 
z"/>
<path fill="#558168" opacity="1.000000" stroke="none" 
	d="
M482.940063,693.322266 
	C479.190308,693.347168 475.337769,693.286682 471.602844,692.592896 
	C465.018799,691.369934 463.168274,688.490234 465.866302,682.360962 
	C469.263062,674.644470 472.771790,666.796204 477.514374,659.884583 
	C497.739258,630.409607 521.716248,604.636536 552.779297,586.120667 
	C554.449951,585.124817 555.238831,582.649841 556.421265,580.514282 
	C559.190125,579.819153 562.084045,578.857483 564.727661,579.321594 
	C566.848328,579.693909 569.761230,581.444458 570.330872,583.221680 
	C570.994080,585.291016 570.130798,588.529236 568.755432,590.393677 
	C567.173584,592.538025 564.345764,593.794739 561.990784,595.332275 
	C544.183044,606.958679 529.021362,621.517151 514.951782,637.347778 
	C503.205292,650.564575 492.210388,664.312561 484.918823,680.537842 
	C483.258057,684.233276 483.515594,688.790894 482.940063,693.322266 
z"/>
<path fill="#558269" opacity="1.000000" stroke="none" 
	d="
M657.119141,786.386963 
	C669.662964,783.595276 679.255188,775.817139 688.081238,767.241516 
	C713.961853,742.095459 739.556030,716.654358 765.219116,691.284912 
	C767.337097,689.191162 769.128296,686.766907 771.563721,683.920715 
	C772.595825,691.382324 773.551514,698.291809 774.410828,705.592285 
	C771.272583,708.463013 768.029053,710.734680 765.222778,713.457153 
	C750.425415,727.812500 735.834351,742.381348 720.974548,756.671143 
	C712.946472,764.391235 704.785278,772.017395 696.204712,779.105652 
	C688.086487,785.811829 679.368774,792.169128 667.954834,790.822021 
	C664.271790,790.387268 660.803223,788.135803 657.119141,786.386963 
z"/>
<path fill="#558369" opacity="1.000000" stroke="none" 
	d="
M941.133057,770.075806 
	C927.598389,777.337158 923.319458,774.612793 923.527344,759.310242 
	C923.803162,739.011719 930.962585,720.521545 939.573303,702.713440 
	C945.692566,690.057800 953.653259,678.293396 960.771118,666.118835 
	C961.607239,664.688782 962.309387,663.180542 963.201050,661.367676 
	C964.679993,660.437195 966.013245,659.406372 967.387024,659.349304 
	C970.298828,659.228149 973.731445,658.722229 976.033569,660.011414 
	C979.139954,661.751038 979.864563,665.530457 977.963623,668.846741 
	C973.751648,676.195068 969.215149,683.356445 964.913086,690.654236 
	C953.849854,709.421265 945.595520,729.338013 941.693481,750.814575 
	C940.584106,756.920105 941.248596,763.347778 941.133057,770.075806 
z"/>
<path fill="#558269" opacity="1.000000" stroke="none" 
	d="
M660.051147,769.767578 
	C656.896423,771.408020 653.598083,773.047180 650.107361,773.880066 
	C646.136841,774.827454 643.357666,772.347046 642.739319,767.830688 
	C641.126282,756.049622 642.902771,744.583130 646.370544,733.353027 
	C652.984192,711.935242 661.913330,691.615662 675.044006,673.278564 
	C677.645691,669.645325 679.602722,665.550415 681.991455,661.341675 
	C683.776428,660.287354 685.437622,659.583008 687.075378,658.827881 
	C692.342651,656.399231 697.590393,659.439392 696.760620,665.118347 
	C696.137207,669.385071 694.311096,673.826538 691.879517,677.417725 
	C681.555725,692.665100 672.898254,708.711853 666.953979,726.157532 
	C662.764648,738.452698 658.658081,750.795593 659.032349,764.046021 
	C659.083069,765.840027 659.548950,767.622375 660.051147,769.767578 
z"/>
<path fill="#FBFDFC" opacity="1.000000" stroke="none" 
	d="
M935.866211,260.776733 
	C938.710571,253.994354 941.420044,247.571289 944.636169,239.947083 
	C957.140198,269.727051 969.197998,298.444427 981.607239,327.998566 
	C977.427063,327.998566 973.989014,328.255585 970.627319,327.861084 
	C969.428528,327.720398 967.944031,326.207458 967.398987,324.965759 
	C965.126587,319.788666 963.015564,314.527557 961.149963,309.190796 
	C960.287415,306.723572 959.028503,305.910004 956.458252,305.955200 
	C947.961609,306.104675 939.456055,305.870514 930.965698,306.145630 
	C929.485840,306.193542 927.366821,307.673462 926.732910,309.042786 
	C923.876465,315.213501 921.448608,321.582611 918.863586,327.886597 
	C915.273376,327.886597 911.957520,327.886597 907.699646,327.886597 
	C917.158203,305.363312 926.444763,283.249664 935.866211,260.776733 
M949.397766,296.156677 
	C951.297607,296.156677 953.197449,296.156677 955.948669,296.156677 
	C951.952820,285.890198 948.320374,276.557251 944.379761,266.432587 
	C943.517029,268.042511 942.994202,268.839050 942.641113,269.704803 
	C939.142456,278.284241 935.671875,286.875122 931.912292,296.156708 
	C937.884521,296.156708 943.156128,296.156708 949.397766,296.156677 
z"/>
<path fill="#FBFDFC" opacity="1.000000" stroke="none" 
	d="
M574.458862,275.397369 
	C579.374084,263.754272 584.114746,252.450592 589.372681,239.913437 
	C601.908569,269.765015 613.951538,298.442902 626.362793,327.997711 
	C622.214294,327.997711 618.647217,328.257263 615.157837,327.850677 
	C614.004578,327.716309 612.637268,326.044220 612.080078,324.764954 
	C609.891785,319.741150 607.858704,314.639160 606.032532,309.472687 
	C605.130066,306.919403 603.904907,305.859497 601.034973,305.934387 
	C592.720825,306.151367 584.393616,306.151276 576.079468,305.934784 
	C573.197998,305.859772 571.923157,306.948639 571.054688,309.493408 
	C569.875671,312.948151 568.377502,316.294312 567.006775,319.683289 
	C563.388855,328.628448 563.386841,328.627625 552.590393,327.647705 
	C559.880127,310.204193 567.082153,292.970490 574.458862,275.397369 
M588.602783,267.427246 
	C584.663940,276.800018 580.725098,286.172821 576.717407,295.709534 
	C584.992249,295.709534 592.467957,295.709534 600.685059,295.709534 
	C596.716370,285.903687 593.007874,276.740906 588.602783,267.427246 
z"/>
<path fill="#558269" opacity="1.000000" stroke="none" 
	d="
M358.140167,769.682739 
	C377.370911,765.261292 392.908081,754.510620 406.815002,741.024170 
	C423.911469,724.444458 436.764984,704.700500 448.769043,684.339478 
	C449.856323,682.495300 450.920959,680.637634 452.575256,678.644836 
	C451.893402,686.764587 454.987305,693.148926 460.847382,698.689026 
	C459.796631,700.054565 458.384766,700.958069 457.433868,702.211243 
	C447.400543,715.434082 438.347900,729.536987 427.233185,741.769226 
	C413.032135,757.398193 396.171509,769.973389 374.755768,774.461182 
	C368.737946,775.722290 362.830475,774.914978 358.140167,769.682739 
z"/>
<path fill="#FBFDFC" opacity="1.000000" stroke="none" 
	d="
M254.097473,292.077148 
	C243.087219,292.321533 232.445541,292.321533 221.173950,292.321533 
	C221.173950,304.422821 221.173950,315.962891 221.173950,327.750031 
	C217.144455,327.750031 213.746536,327.750031 210.069214,327.750031 
	C210.069214,299.955048 210.069214,272.395447 210.069214,244.502075 
	C226.357056,244.502075 242.443527,244.502075 259.031586,244.502075 
	C259.031586,247.772415 259.031586,251.121384 259.031586,254.933990 
	C246.606216,254.933990 234.187592,254.933990 221.396118,254.933990 
	C221.396118,263.918854 221.396118,272.468414 221.396118,281.575623 
	C232.350418,281.575623 243.257675,281.575623 254.466064,281.575623 
	C254.466064,285.356079 254.466064,288.594421 254.097473,292.077148 
z"/>
<path fill="#56856A" opacity="1.000000" stroke="none" 
	d="
M66.905006,563.021973 
	C67.709488,561.645874 69.561295,560.602051 69.832726,559.242737 
	C71.457909,551.103760 77.788689,547.582581 84.452003,545.736328 
	C98.019073,541.977173 111.747986,538.259216 125.660866,536.402893 
	C155.539703,532.416260 185.659378,530.866943 215.807358,532.143250 
	C228.688446,532.688660 241.530319,534.475464 254.349380,536.032715 
	C260.437225,536.772217 266.429840,538.295898 272.736450,539.726868 
	C267.440155,539.908386 261.863373,540.004822 256.308228,539.702820 
	C248.857483,539.297791 241.413940,537.992554 233.984070,538.112366 
	C209.412521,538.508423 184.789719,538.559814 160.301743,540.333252 
	C143.315948,541.563354 126.445244,545.022827 109.667572,548.239685 
	C100.055328,550.082642 91.593338,554.446777 86.123665,563.522034 
	C82.783981,569.063110 75.528900,569.655762 70.325569,565.709412 
	C69.267456,564.906921 68.255379,564.043701 66.905006,563.021973 
z"/>
<path fill="#56856A" opacity="1.000000" stroke="none" 
	d="
M354.899231,755.634155 
	C348.475281,758.126282 342.821075,756.036865 337.945923,751.890564 
	C332.833832,747.542664 329.931885,741.695068 329.213623,735.049133 
	C327.063721,715.157043 330.843231,696.123474 338.166656,677.699158 
	C339.295807,674.858398 341.095581,672.284241 342.918243,668.983704 
	C347.222870,675.295471 350.997223,680.829651 354.964294,686.642456 
	C354.118896,688.559692 352.629059,690.068176 352.113800,691.857361 
	C347.780548,706.904541 343.854034,722.164734 347.204010,737.870911 
	C348.499878,743.946533 352.197479,749.509888 354.899231,755.634155 
z"/>
<path fill="#558369" opacity="1.000000" stroke="none" 
	d="
M364.154724,687.118530 
	C376.299744,679.365173 385.645233,669.059875 390.479279,655.248535 
	C393.853699,645.607422 393.274048,636.275940 385.249023,628.258301 
	C396.854584,624.729004 408.076141,633.869141 408.958984,647.399048 
	C409.505280,655.770630 406.868835,663.378540 402.160339,669.954224 
	C397.753296,676.108887 392.721741,681.984924 387.153717,687.100525 
	C378.552917,695.002563 373.371277,694.702454 364.154724,687.118530 
z"/>
<path fill="#FFFFFF" opacity="1.000000" stroke="none" 
	d="
M880.805115,267.000000 
	C880.805115,259.225739 880.805115,251.951508 880.805115,244.439011 
	C884.727539,244.439011 887.991211,244.439011 891.632812,244.439011 
	C891.632812,272.104095 891.632812,299.670685 891.632812,327.619446 
	C888.387329,327.619446 884.993835,327.619446 880.805115,327.619446 
	C880.805115,307.652588 880.805115,287.576263 880.805115,267.000000 
z"/>
<path fill="#548369" opacity="1.000000" stroke="none" 
	d="
M699.962158,627.186707 
	C708.148804,613.793823 716.031433,600.657593 724.387085,587.829346 
	C725.542786,586.055054 729.268555,584.672180 731.397949,585.105591 
	C734.866577,585.811462 735.969604,589.237122 735.207764,592.718689 
	C734.750610,594.808044 734.144165,597.000549 733.029785,598.788208 
	C725.985779,610.088074 718.781433,621.288147 711.626038,632.518494 
	C711.447693,632.798340 711.241272,633.065613 711.016541,633.309753 
	C708.636658,635.895264 705.900269,638.035828 702.288147,636.189758 
	C698.659851,634.335388 698.514832,631.037903 699.962158,627.186707 
z"/>
<path fill="#548369" opacity="1.000000" stroke="none" 
	d="
M1009.096680,585.060669 
	C1014.701782,584.430908 1018.062866,587.927734 1016.539368,593.106995 
	C1015.384766,597.032043 1013.376404,600.797791 1011.234375,604.322266 
	C1005.959290,613.002136 1000.467651,621.554382 994.878784,630.036499 
	C993.533752,632.077881 991.758118,634.227661 989.656128,635.263306 
	C987.715088,636.219543 984.203735,636.740784 982.957703,635.652222 
	C981.432312,634.319519 980.416565,630.657166 981.164429,628.801758 
	C983.260986,623.600342 986.246643,618.732544 989.122314,613.875671 
	C993.532898,606.426636 998.019226,599.015137 1002.740906,591.761841 
	C1004.336121,589.311340 1006.744019,587.389893 1009.096680,585.060669 
z"/>
<path fill="#FBFCFB" opacity="1.000000" stroke="none" 
	d="
M999.124573,592.006104 
	C991.068848,604.678650 983.230591,617.040344 975.271240,629.323547 
	C973.764465,631.648804 971.914185,634.573975 968.525940,632.428528 
	C965.300781,630.386292 965.228821,627.307129 967.187073,624.142639 
	C971.215393,617.632935 975.244629,611.123779 979.248962,604.599365 
	C983.339233,597.934937 987.430908,591.270996 991.457458,584.568054 
	C992.915222,582.141418 994.445618,578.491455 997.533325,580.506897 
	C999.513611,581.799438 999.939331,585.709045 1000.665161,588.546875 
	C1000.887024,589.414185 999.792053,590.618225 999.124573,592.006104 
z"/>
<path fill="#FBFCFB" opacity="1.000000" stroke="none" 
	d="
M708.257751,608.278503 
	C703.299927,615.612061 698.587402,622.671997 693.736633,629.635620 
	C692.227112,631.802612 690.359558,634.477173 687.275146,632.527954 
	C684.141296,630.547546 683.752136,627.541992 685.797668,624.278076 
	C689.597473,618.214844 693.323792,612.105530 697.061829,606.003784 
	C701.668884,598.483398 706.142761,590.877075 710.945984,583.484558 
	C711.942627,581.950684 714.366333,580.085571 715.706604,580.371155 
	C717.180908,580.685242 718.951355,583.208435 719.165771,584.945374 
	C719.446411,587.219055 718.804382,589.913818 717.720459,591.989319 
	C714.872742,597.442078 711.570740,602.657654 708.257751,608.278503 
z"/>
<path fill="#56866B" opacity="1.000000" stroke="none" 
	d="
M575.609985,727.771118 
	C574.327332,729.821838 572.937012,731.848022 571.195618,733.505188 
	C568.275391,736.284363 565.408264,736.411194 563.000854,732.680969 
	C561.291626,730.032410 559.520935,727.423035 557.755249,724.811401 
	C549.978760,713.309570 539.512573,705.318970 526.091003,700.615723 
	C527.682190,700.149353 529.663391,699.357849 531.434326,699.689392 
	C548.270691,702.841553 562.142273,711.017334 572.728394,724.595093 
	C573.540710,725.636902 574.469788,726.587585 575.609985,727.771118 
z"/>
<path fill="#558269" opacity="1.000000" stroke="none" 
	d="
M265.120789,967.470459 
	C271.847290,965.299011 274.366638,960.339111 274.727783,953.378906 
	C276.259338,952.635193 277.825439,952.522888 279.103180,951.857117 
	C282.154541,950.267334 285.603333,949.281860 287.557678,952.475281 
	C289.279785,955.289246 290.577698,959.219788 290.087372,962.347534 
	C289.143494,968.368530 284.296143,971.542969 278.539062,972.457581 
	C273.492310,973.259338 268.671265,972.184021 265.120789,967.470459 
z"/>
<path fill="#56856A" opacity="1.000000" stroke="none" 
	d="
M830.093872,565.041687 
	C821.940857,582.514648 813.781006,599.984314 805.642822,617.464172 
	C804.502441,619.913391 803.468140,622.411987 802.384705,624.887756 
	C801.805481,624.877930 801.226196,624.868103 800.646973,624.858276 
	C800.236694,622.669861 799.142761,620.356995 799.515015,618.310913 
	C812.893311,544.769836 834.470032,474.405609 879.788147,413.385315 
	C881.391174,411.226929 884.096863,409.887451 886.288574,408.166260 
	C886.378113,410.929443 887.149353,413.882996 886.440063,416.423126 
	C883.265869,427.789978 879.669800,439.039001 875.734741,450.770630 
	C873.458313,453.551941 871.305725,455.700104 869.955017,458.269714 
	C865.387451,466.959534 860.882080,475.695862 856.755005,484.600739 
	C845.591614,508.687561 836.801453,533.649719 830.005493,559.305603 
	C829.534180,561.085022 830.041565,563.123596 830.093872,565.041687 
z"/>
<path fill="#579171" opacity="1.000000" stroke="none" 
	d="
M830.356689,564.815308 
	C830.041565,563.123596 829.534180,561.085022 830.005493,559.305603 
	C836.801453,533.649719 845.591614,508.687561 856.755005,484.600739 
	C860.882080,475.695862 865.387451,466.959534 869.955017,458.269714 
	C871.305725,455.700104 873.458313,453.551941 875.557861,451.098572 
	C867.478027,473.677155 859.428101,496.503326 850.570618,519.011719 
	C844.502075,534.433044 837.309631,549.412170 830.356689,564.815308 
z"/>
<path fill="#56856A" opacity="1.000000" stroke="none" 
	d="
M357.933960,646.926514 
	C363.611237,643.580994 368.708008,639.680603 374.457062,637.499451 
	C380.777710,635.101501 383.448364,637.933716 381.813751,644.385986 
	C378.708221,656.644287 370.815186,665.384705 360.529846,672.198669 
	C359.847900,672.650391 358.291779,672.914246 357.919556,672.524048 
	C354.779846,669.232483 350.233978,666.149475 349.294678,662.238953 
	C348.498199,658.923401 351.721741,654.485474 353.597198,650.761108 
	C354.356110,649.254028 356.258759,648.322815 357.933960,646.926514 
z"/>
<path fill="#56866B" opacity="1.000000" stroke="none" 
	d="
M535.897949,806.923035 
	C533.649414,809.084656 531.642456,810.977356 529.635559,812.870056 
	C529.063782,812.687378 528.492065,812.504700 527.920288,812.321960 
	C528.308044,810.270386 528.108337,807.821045 529.182739,806.234497 
	C534.471436,798.424866 539.993774,790.764771 545.700317,783.254639 
	C546.745911,781.878601 549.025635,781.440247 550.735657,780.569092 
	C551.141174,781.031982 551.546631,781.494873 551.952087,781.957764 
	C546.681274,790.189880 541.410400,798.421997 535.897949,806.923035 
z"/>
<path fill="#558269" opacity="1.000000" stroke="none" 
	d="
M345.727478,548.595032 
	C335.397095,560.023987 330.409912,574.549683 323.620300,587.973022 
	C308.445953,617.973389 293.772034,648.226501 278.816376,678.337952 
	C267.588928,700.943054 260.475555,724.647888 258.914032,749.945435 
	C257.717194,769.335083 256.056549,788.698486 255.051804,808.096802 
	C254.321182,822.202148 253.725021,836.362488 254.124863,850.468384 
	C254.972687,880.377930 256.248108,910.298218 263.667084,939.523132 
	C264.192749,941.593689 265.113434,943.563904 266.095642,945.875671 
	C265.153992,947.967834 264.065491,949.841614 262.747894,951.537292 
	C261.774078,952.790527 260.210052,954.908081 259.425659,954.699341 
	C257.971039,954.312195 256.235321,952.716125 255.768234,951.255310 
	C252.991974,942.572449 249.865616,933.918457 248.104797,925.008118 
	C239.975311,883.870605 239.805008,842.185974 241.693726,800.576843 
	C242.922150,773.513916 245.608734,746.420288 249.541580,719.619263 
	C251.410599,706.882446 256.593567,694.259460 262.213745,682.512329 
	C282.882416,639.311157 304.339172,596.486633 325.563873,553.552307 
	C328.687286,547.234131 333.163269,545.495850 340.018005,547.338684 
	C341.776031,547.811279 343.597687,548.047180 345.727478,548.595032 
z"/>
<path fill="#558369" opacity="1.000000" stroke="none" 
	d="
M315.993988,528.943909 
	C312.841339,528.896729 309.627869,529.226013 306.547974,528.728455 
	C298.782318,527.473816 297.133057,524.663208 300.027405,517.346680 
	C304.369568,506.370148 308.851746,495.442017 313.577759,484.625824 
	C323.086182,462.864197 335.660950,442.858246 349.541626,423.683136 
	C352.916626,419.020813 357.336975,415.058014 361.615906,411.144501 
	C362.795959,410.065216 365.199799,410.323944 367.042084,409.968719 
	C367.258057,411.502869 367.874359,413.106842 367.620880,414.559082 
	C366.511688,420.914246 365.150421,427.225464 363.357910,433.937195 
	C361.363586,435.841370 359.678223,437.206665 358.452911,438.904083 
	C343.741913,459.283569 332.340973,481.502197 322.871277,504.686584 
	C319.708649,512.429626 315.071289,519.960022 315.993988,528.943909 
z"/>
<path fill="#56866B" opacity="1.000000" stroke="none" 
	d="
M294.445251,588.186340 
	C282.486847,616.730225 269.316956,641.169128 263.303650,644.435608 
	C263.303650,641.687134 262.946075,639.482605 263.357513,637.432495 
	C269.090149,608.868896 275.767822,580.562500 286.635834,553.415771 
	C291.687531,540.797302 291.667419,540.632996 305.193665,543.224243 
	C308.052399,543.771912 310.625702,545.809509 312.901733,547.568420 
	C308.738037,548.021362 306.160034,549.815491 304.884064,553.282410 
	C301.180084,563.346313 297.476288,573.411926 293.978729,583.548096 
	C293.518555,584.881714 294.260223,586.630066 294.445251,588.186340 
z"/>
<path fill="#579171" opacity="1.000000" stroke="none" 
	d="
M316.380066,529.029419 
	C315.071289,519.960022 319.708649,512.429626 322.871277,504.686584 
	C332.340973,481.502197 343.741913,459.283569 358.452911,438.904083 
	C359.678223,437.206665 361.363586,435.841370 363.187439,434.248291 
	C354.149475,464.399170 341.622101,493.349426 327.835815,521.778687 
	C325.662262,526.260742 321.893372,528.838196 316.380066,529.029419 
z"/>
<path fill="#579171" opacity="1.000000" stroke="none" 
	d="
M294.669678,587.933838 
	C294.260223,586.630066 293.518555,584.881714 293.978729,583.548096 
	C297.476288,573.411926 301.180084,563.346313 304.884064,553.282410 
	C306.160034,549.815491 308.738037,548.021362 312.877350,547.949707 
	C312.842987,549.613892 312.669312,551.432922 311.923126,552.974915 
	C306.310211,564.574463 300.584534,576.119324 294.669678,587.933838 
z"/>
<path fill="#56856A" opacity="1.000000" stroke="none" 
	d="
M911.974609,564.997620 
	C903.819580,582.446899 895.659180,599.893738 887.515564,617.348389 
	C886.367126,619.809937 885.300781,622.309814 884.078064,625.058044 
	C880.197815,622.712708 881.010681,619.648010 881.511353,616.804565 
	C887.082703,585.161316 894.792725,554.045349 905.121521,523.617798 
	C918.616150,483.864227 936.644470,446.391449 962.052856,412.749878 
	C963.506897,410.824615 966.581177,407.940369 967.769104,408.403961 
	C971.406860,409.823547 969.256592,413.247528 968.525879,415.752533 
	C965.036743,427.713196 961.362183,439.619781 957.183716,451.901855 
	C955.473206,453.385284 954.004089,454.325439 953.239685,455.667053 
	C934.745361,488.131104 921.819580,522.845337 911.906250,558.749817 
	C911.373596,560.679016 911.926880,562.908142 911.974609,564.997620 
z"/>
<path fill="#579171" opacity="1.000000" stroke="none" 
	d="
M912.216980,564.743103 
	C911.926880,562.908142 911.373596,560.679016 911.906250,558.749817 
	C921.819580,522.845337 934.745361,488.131104 953.239685,455.667053 
	C954.004089,454.325439 955.473206,453.385284 956.963623,452.185120 
	C951.230347,468.977844 945.627747,486.036713 938.942871,502.660400 
	C930.580017,523.456787 921.327698,543.895508 912.216980,564.743103 
z"/>
<path fill="#559571" opacity="1.000000" stroke="none" 
	d="
M398.046936,317.370331 
	C379.763763,320.112488 363.615173,308.628815 361.088470,291.480743 
	C358.433258,273.460205 369.930237,257.360199 387.450745,254.563904 
	C403.739563,251.964172 419.005798,263.157196 422.390320,280.181122 
	C425.761230,297.136597 415.384277,313.219696 398.046936,317.370331 
z"/>
<path fill="#559571" opacity="1.000000" stroke="none" 
	d="
M815.892273,265.039062 
	C815.892273,261.595245 815.892273,258.644257 815.892273,255.542130 
	C821.755493,255.542130 827.244934,254.941040 832.546204,255.683243 
	C840.468506,256.792358 845.481750,263.931885 844.833679,271.845642 
	C844.146118,280.243225 838.776245,285.644958 830.385376,286.053345 
	C825.783020,286.277344 821.160706,286.093414 815.892273,286.093414 
	C815.892273,279.016296 815.892273,272.274078 815.892273,265.039062 
z"/>
<path fill="#589673" opacity="1.000000" stroke="none" 
	d="
M318.148743,272.663757 
	C316.107574,282.109863 311.650604,285.901733 302.564026,286.151093 
	C298.419495,286.264801 294.269226,286.170441 289.681885,286.170441 
	C289.681885,275.841217 289.681885,265.816315 289.681885,255.470703 
	C295.086670,255.470703 300.579346,254.872543 305.886902,255.608795 
	C314.155457,256.755798 318.207428,262.746277 318.148743,272.663757 
z"/>
<path fill="#589673" opacity="1.000000" stroke="none" 
	d="
M948.912720,296.156677 
	C943.156128,296.156708 937.884521,296.156708 931.912292,296.156708 
	C935.671875,286.875122 939.142456,278.284241 942.641113,269.704803 
	C942.994202,268.839050 943.517029,268.042511 944.379761,266.432587 
	C948.320374,276.557251 951.952820,285.890198 955.948669,296.156677 
	C953.197449,296.156677 951.297607,296.156677 948.912720,296.156677 
z"/>
<path fill="#589673" opacity="1.000000" stroke="none" 
	d="
M588.951111,267.502686 
	C593.007874,276.740906 596.716370,285.903687 600.685059,295.709534 
	C592.467957,295.709534 584.992249,295.709534 576.717407,295.709534 
	C580.725098,286.172821 584.663940,276.800018 588.951111,267.502686 
z"/>
</svg>